<svg width="16" height="16" viewBox="0 0 16 16" fill="none" xmlns="http://www.w3.org/2000/svg">
<g opacity="0.7">
<path d="M14.4699 2.47007C14.5699 2.34115 14.6193 2.18021 14.609 2.01743C14.5988 1.85466 14.5295 1.70122 14.4141 1.58589C14.2988 1.47056 14.1454 1.40126 13.9826 1.39098C13.8198 1.3807 13.6589 1.43016 13.5299 1.53007L7.99995 7.06007L2.46995 1.53007C2.34103 1.43016 2.18009 1.3807 2.01731 1.39098C1.85454 1.40126 1.7011 1.47056 1.58577 1.58589C1.47044 1.70122 1.40113 1.85466 1.39086 2.01743C1.38058 2.18021 1.43004 2.34115 1.52995 2.47007L7.05995 8.00007L1.52995 13.5301C1.43004 13.659 1.38058 13.8199 1.39086 13.9827C1.40113 14.1455 1.47044 14.2989 1.58577 14.4142C1.7011 14.5296 1.85454 14.5989 2.01731 14.6092C2.18009 14.6194 2.34103 14.57 2.46995 14.4701L7.99995 8.94007L13.5299 14.4701C13.6546 14.5947 13.8237 14.6647 13.9999 14.6647C14.1762 14.6647 14.3453 14.5947 14.4699 14.4701C14.5946 14.3454 14.6646 14.1764 14.6646 14.0001C14.6646 13.8238 14.5946 13.6547 14.4699 13.5301L8.93994 8.00007L14.4699 2.47007Z" fill="#325CE3"/>
</g>
</svg>
